<?xml version="1.0" encoding="utf-8"?>
<!-- Generator: Adobe Illustrator 28.2.0, SVG Export Plug-In . SVG Version: 6.00 Build 0)  -->
<svg version="1.1" id="Camada_1" xmlns="http://www.w3.org/2000/svg" xmlns:xlink="http://www.w3.org/1999/xlink" x="0px" y="0px"
	 viewBox="0 0 466.5 223.7" style="enable-background:new 0 0 466.5 223.7;" xml:space="preserve">
<style type="text/css">
	.st0{fill:url(#SVGID_1_);}
	.st1{fill:url(#SVGID_00000057107686026807437120000003322458172255821488_);}
	.st2{fill:#6D6D6D;}
	.st3{fill-rule:evenodd;clip-rule:evenodd;fill:#C3C3C3;}
	.st4{fill:#C3C3C3;}
	.st5{fill:url(#SVGID_00000077284962740503951070000017796043974283355779_);}
	.st6{fill:#FFFFFF;}
	.st7{fill:#222D56;}
	.st8{fill:#78ACCD;}
	.st9{fill:url(#SVGID_00000152230064564372037070000013630761130673545386_);}
	.st10{fill:url(#SVGID_00000182530730437523666290000014061907447962929297_);}
	.st11{fill:url(#SVGID_00000111171250207795856730000008461223130951164054_);}
	.st12{fill:url(#SVGID_00000150080567070337413990000002105522233744667546_);}
	.st13{fill:url(#SVGID_00000055692293382354561820000006888497090946207110_);}
	.st14{fill:url(#SVGID_00000004513776908249545850000006943391863124173746_);}
	.st15{fill:url(#SVGID_00000003792665014710477520000004707378208312030642_);}
	.st16{fill-rule:evenodd;clip-rule:evenodd;fill:#FCFAFA;}
	.st17{fill:#FCFAFA;}
	.st18{fill:url(#SVGID_00000097476474145562410780000015393334291695355010_);}
	.st19{fill:url(#SVGID_00000165922190372258078890000016491181630432366259_);}
	.st20{fill:url(#SVGID_00000104696866353417039470000018343588018981993369_);}
	.st21{fill:url(#SVGID_00000082327240814624924930000012184018398418546582_);}
	.st22{fill:url(#SVGID_00000150068266933523683820000005590089692124292539_);}
	.st23{fill:url(#SVGID_00000013893187507016333120000014311788187958762937_);}
	.st24{fill:url(#SVGID_00000005241340833981040580000018011474600654690708_);}
	.st25{fill:url(#SVGID_00000116234647997473919880000005307547719276007864_);}
	.st26{fill:url(#SVGID_00000036214484666479117840000014648040028698985398_);}
	.st27{fill:url(#SVGID_00000023987349407668541320000015344582294632178569_);}
	.st28{fill:url(#SVGID_00000025413076155571011520000009195228618198574737_);}
	.st29{fill:url(#SVGID_00000147178576364307693550000005530234832620687544_);}
	.st30{fill:url(#SVGID_00000035523283608545457110000008809385337214313377_);}
	.st31{fill:url(#SVGID_00000000223309746577734020000010684281847476365447_);}
	.st32{fill:url(#SVGID_00000168796200648991633500000009928216356696909209_);}
	.st33{fill:url(#SVGID_00000102507630362418571070000010213777102846737028_);}
	.st34{fill:url(#SVGID_00000016077621013775913250000014008729304567812993_);}
	.st35{fill-rule:evenodd;clip-rule:evenodd;fill:#77859F;}
	.st36{fill:#77859F;}
	.st37{fill:url(#SVGID_00000181808321522579244940000012744321832134932614_);}
	.st38{fill:url(#SVGID_00000016054480017223230570000008260988927759187346_);}
	.st39{fill:url(#SVGID_00000156585764649443804790000008651248483538476984_);}
	.st40{fill:url(#SVGID_00000076585727543722528350000017455855112613223357_);}
	.st41{fill:url(#SVGID_00000044167794851278561790000006572018965881553821_);}
	.st42{fill:url(#SVGID_00000020372128224619430350000001406651067407301264_);}
	.st43{fill:url(#SVGID_00000104679241828888307440000007391295288164700854_);}
	.st44{fill:url(#SVGID_00000036958045567348516620000016563769274285230262_);}
	.st45{fill:url(#SVGID_00000015324800125203060150000014469739780412097187_);}
	.st46{fill:url(#SVGID_00000071518127988185529390000012471113038745172627_);}
	.st47{fill:url(#SVGID_00000127723614466165069650000004028845239684947343_);}
	.st48{fill:url(#SVGID_00000106844330170402213000000000258451963026248089_);}
	.st49{fill:url(#SVGID_00000109019978995925413680000012023041785893284264_);}
	.st50{fill:url(#SVGID_00000106850119845352161670000004304704430493656195_);}
	.st51{fill:url(#SVGID_00000052805384442050256320000013251924546583682709_);}
	.st52{fill:url(#SVGID_00000171692797462469321090000016814303287440498326_);}
	.st53{fill:url(#SVGID_00000040566916499554596810000000474655945392259727_);}
	.st54{fill:url(#SVGID_00000052103173828338738850000006579280691739608222_);}
	.st55{fill:url(#SVGID_00000123433440620769177730000018340389031423163820_);}
	.st56{fill:url(#SVGID_00000018956254099504912130000012696091073235443386_);}
	.st57{fill:url(#SVGID_00000128475181056721250150000013515866587096906121_);}
	.st58{fill:url(#SVGID_00000085944232864634070130000002740002235018500748_);}
	.st59{fill:url(#SVGID_00000067225649380096406790000008590466099056985262_);}
	.st60{fill:url(#SVGID_00000131333495944754248600000009635766906325198513_);}
	.st61{fill:url(#SVGID_00000183950287503750258050000014041347906776107413_);}
	.st62{fill:url(#SVGID_00000119113779265034397590000015204023016343709074_);}
	.st63{fill:url(#SVGID_00000114758653211229134710000017669404976868155303_);}
	.st64{fill:url(#SVGID_00000149361523491627218640000018339895423852994462_);}
	.st65{fill:url(#SVGID_00000183952339015529295020000008476478287200965278_);}
	.st66{fill:url(#SVGID_00000013892889621549606240000010436496199455860918_);}
	.st67{fill:url(#SVGID_00000109000568315088780190000011842786192530438051_);}
	.st68{fill:url(#SVGID_00000049201935775412725520000013999551637498241196_);}
	.st69{fill:url(#SVGID_00000120520076065823588000000001459348598146086047_);}
	.st70{fill:url(#SVGID_00000108276028473743533700000017992162778350489267_);}
	.st71{fill:url(#SVGID_00000018924141055908696910000004379403075230774946_);}
	.st72{fill:url(#SVGID_00000139283808839069514730000012510785087358092452_);}
	.st73{fill:url(#SVGID_00000059282064076833017520000001322558522675769216_);}
	.st74{fill:url(#SVGID_00000111163849992204456930000011331589064779797158_);}
	.st75{fill:url(#SVGID_00000014604699366498791320000017795644074487011511_);}
	.st76{fill:url(#SVGID_00000155828082682113331490000014468984642336816279_);}
	.st77{fill:url(#SVGID_00000145032765275614241480000015295911633187061154_);}
	.st78{fill:url(#SVGID_00000136396308018015741530000011563253921879896707_);}
	.st79{fill:url(#SVGID_00000053525579018161328530000018167859737402162871_);}
	.st80{fill:url(#SVGID_00000060719169424129743890000012806638237566557837_);}
	.st81{fill:url(#SVGID_00000155855400286507469880000011193427309674345392_);}
	.st82{fill:url(#SVGID_00000029744555075228052370000005123317613806007680_);}
	.st83{fill:url(#SVGID_00000101082418936880542300000009465862738993509791_);}
	.st84{fill:url(#SVGID_00000155846406432331087440000011655770953053282699_);}
	.st85{fill:url(#SVGID_00000124156985666106042300000004574848461446794934_);}
	.st86{fill:url(#SVGID_00000150788492377330431650000003653410990411546528_);}
	.st87{fill:url(#SVGID_00000160894005633858449310000003382563725722602649_);}
	.st88{fill:url(#SVGID_00000131353883964203990440000010360211851420749991_);}
	.st89{fill:url(#SVGID_00000068665046852805188640000009634868672466554502_);}
	.st90{fill:url(#SVGID_00000081615506561492354300000011573010814617326006_);}
	.st91{fill:url(#SVGID_00000067957010015858726050000016581705744888730528_);}
	.st92{fill:url(#SVGID_00000093897027251781530730000003790449881434979507_);}
	.st93{fill:url(#SVGID_00000034063332893282603030000007262344005268076178_);}
	.st94{fill:url(#SVGID_00000151518051371412316630000011230511451626244995_);}
	.st95{fill:url(#SVGID_00000055677149225442254900000014098015434546930581_);}
	.st96{fill:url(#SVGID_00000140003563028746497780000015683840583687708574_);}
	.st97{fill:url(#SVGID_00000089550841357108016510000012779647975414274746_);}
	.st98{fill:url(#SVGID_00000021079543948659935250000002222326502209592207_);}
	.st99{fill:url(#SVGID_00000106843502224495040580000008034401387580610995_);}
	.st100{fill:url(#SVGID_00000142166981216359200200000000586816201120966058_);}
	.st101{fill:url(#SVGID_00000152973824059181337920000013254093473585232787_);}
	.st102{fill:url(#SVGID_00000005259217415677716240000005373263357344610962_);}
	.st103{fill:url(#SVGID_00000180324817618818064170000013955034696504731815_);}
	.st104{fill:url(#SVGID_00000107552845523655450440000012324199466252739262_);}
	.st105{fill:url(#SVGID_00000032613858132816103960000005446055420098636990_);}
	.st106{fill:url(#SVGID_00000018223326516043185200000008951734754888650899_);}
	.st107{fill:url(#SVGID_00000090263751780139821310000010925049369760712591_);}
	.st108{fill:url(#SVGID_00000079485787144498471840000016160055678853336254_);}
	.st109{fill:url(#SVGID_00000015354069822871870480000008212700385151480757_);}
	.st110{fill:url(#SVGID_00000034799073160872781130000013231261674233571473_);}
	.st111{fill:#4C4D4D;}
	.st112{fill:url(#SVGID_00000115491778327441567240000007459466460388783747_);}
	.st113{fill:url(#SVGID_00000183941599955721562710000007719883785534810761_);}
	.st114{fill:url(#SVGID_00000016060428502083374270000006023282999394090686_);}
	.st115{fill:url(#SVGID_00000049201648676570405100000009588599959530672004_);}
</style>
<g>
	
		<linearGradient id="SVGID_1_" gradientUnits="userSpaceOnUse" x1="168.8239" y1="85.3229" x2="304.816" y2="106.6051" gradientTransform="matrix(0.9821 0.1882 -0.1882 0.9821 25.8049 -83.3306)">
		<stop  offset="0" style="stop-color:#7CB2D3;stop-opacity:0.4"/>
		<stop  offset="0.3485" style="stop-color:#5B83A8;stop-opacity:0.6091"/>
		<stop  offset="1" style="stop-color:#1F305B"/>
	</linearGradient>
	<path class="st0" d="M313.8,10.2c-2.5-1.3-5.2-2.2-8-2.7c-5.6-1-11.3-0.9-16.9-0.3c-11.3,1.4-22.2,4.6-32.9,8.6
		c-7.4,2.8-14.6,6-21.7,9.4c-3.1,1.5-6.2,3.1-9.3,4.7l-0.7,0.4h0c-9.8,5.3-19.4,11.1-28.6,17.4c-12.6,8.7-24.7,18.1-35.9,28.8
		c-0.8,4-1.2,8.1-1.2,12.3c0,3.2,0.2,6.3,0.7,9.4c5.4-7.1,11.3-14,17.6-20.6c7.6-8.1,15.6-15.7,24.1-22.9
		c10-8.4,20.4-16.4,31.5-23.3c2.6-1.6,5.2-3.2,7.9-4.8c5.4-3.1,10.9-6,16.5-8.6c5.1-2.3,10.3-4.5,15.7-6.2c5.3-1.7,10.8-3.2,16.3-4
		c2.8-0.4,5.6-0.7,8.4-0.7c2.8-0.1,5.6,0.1,8.4,0.5C308.6,8.1,311.3,9,313.8,10.2c2.5,1.3,4.7,3.1,6.5,5.4
		C318.6,13.3,316.3,11.5,313.8,10.2z"/>
	<g>
		<path class="st7" d="M68.8,31.6c20.6,0,38.2,9.7,49.7,25.2l-9.2,7.4c-10.5-13.8-24-20.6-40.5-20.6c-28.5,0-50.5,23.2-50.5,52
			c0,29.3,21.9,52.2,50.2,52.2c16.6,0,30.1-6.9,40.8-20.6l9.2,7.4c-11.5,15.5-29.3,25.2-50,25.2c-34.7,0.8-64.2-29.3-63.5-64.2
			C4.3,60.6,33.9,30.8,68.8,31.6z"/>
	</g>
	<g>
		
			<linearGradient id="SVGID_00000133488028389519373310000002616853427822052742_" gradientUnits="userSpaceOnUse" x1="177.6316" y1="134.6312" x2="268.9794" y2="43.2833">
			<stop  offset="0" style="stop-color:#1F305B"/>
			<stop  offset="1" style="stop-color:#7CB2D3"/>
		</linearGradient>
		<path style="fill:url(#SVGID_00000133488028389519373310000002616853427822052742_);" d="M239.1,123.3c-0.5-0.3-1.1-0.5-1.6-0.8
			c-0.2,0.1-0.4,0.2-0.7,0.3c-2.7,1.1-5.5,1.9-8.5,2.3c-0.3,0-0.5,0.1-0.8,0.1c-1.4,0.2-2.8,0.3-4.3,0.3h0c-2.5,0-4.9-0.3-7.2-0.7
			c-0.9-0.2-1.9-0.4-2.7-0.7c-0.8-0.2-1.7-0.5-2.5-0.8c-2.2-0.8-4.4-1.8-6.4-3c0,0,0,0,0,0c-0.5-0.3-1-0.6-1.5-1
			c-0.7-0.1-1.4-0.2-2.1-0.2c-3,0-5.7,1.9-8,3.6c-3.5,2.8-6.5,6.3-9.2,9.9c-1.1,1.5-2.3,3.1-3.3,4.7c0.2,0.1,0.3,0.3,0.5,0.4
			c2.4,2.1,5,4,7.7,5.8c1.2-1.2,2.4-2.5,3.7-3.6c2.6-2.4,5.7-4.6,9.2-5.4c2.4-0.6,4.5-0.1,6.7,0.9c3,1.4,5.7,3.3,8.4,5.1
			c2-1,3.9-2,5.8-3c1.3-0.7,2.6-1.4,3.9-2.1c0.2-0.1,0.4-0.2,0.6-0.3c2.5-1.4,5-2.8,7.5-4.3c0.2-0.1,0.4-0.2,0.6-0.3
			c2.6-1.5,5.1-3.1,7.6-4.7c0.2-0.1,0.3-0.2,0.5-0.3C241.8,124.7,240.5,124,239.1,123.3z M285,99.6c-1.3,1.4-2.5,2.7-3.8,4.1
			c-2.1,2.3-4.3,4.5-6.5,6.7c-0.1,0.1-0.3,0.3-0.4,0.4c-1.9,1.8-3.7,3.7-5.6,5.5c-0.1,0.1-0.3,0.2-0.4,0.4
			c-3.9,3.6-7.8,7.2-11.9,10.7c-0.6,0.5-1.2,1-1.8,1.5c-0.2,0.2-0.3,0.3-0.5,0.4c-2.8,2.3-5.7,4.6-8.6,6.9c-0.2,0.2-0.4,0.3-0.5,0.4
			c-2.6,2-5.3,4-8,6c-0.2,0.1-0.3,0.3-0.5,0.4c-2.8,2-5.5,3.9-8.4,5.8c-0.2,0.1-0.4,0.3-0.6,0.4c-2.4,1.6-4.8,3.1-7.2,4.6
			c1,0.1,2,0.1,3.1,0.1c3.3,0,6.6-0.3,9.8-0.7c0.3-0.1,0.6-0.1,0.9-0.2c4.6-0.8,9-2,13.2-3.7c0.3-0.1,0.5-0.2,0.8-0.3
			c5.4-2.3,10.5-5.2,15-8.8c0.3-0.2,0.5-0.4,0.8-0.6c5.5-4.5,10.3-9.8,14.1-15.9c0.1-0.2,0.2-0.3,0.3-0.5c1.2-1.9,2.3-3.8,3.2-5.8
			c0.1-0.2,0.2-0.3,0.2-0.5c0.1-0.2,0.2-0.5,0.3-0.7c0.1-0.2,0.2-0.4,0.3-0.6c2.6-5.8,4.4-12,5.2-18.5
			C286.6,97.8,285.8,98.7,285,99.6z M239.1,123.3c-0.5-0.3-1.1-0.5-1.6-0.8c-0.2,0.1-0.4,0.2-0.7,0.3c-2.7,1.1-5.5,1.9-8.5,2.3
			c-0.3,0-0.5,0.1-0.8,0.1c-1.4,0.2-2.8,0.3-4.3,0.3h0c-2.5,0-4.9-0.3-7.2-0.7c-0.9-0.2-1.9-0.4-2.7-0.7c-0.8-0.2-1.7-0.5-2.5-0.8
			c-2.2-0.8-4.4-1.8-6.4-3c0,0,0,0,0,0c-0.5-0.3-1-0.6-1.5-1c-0.7-0.1-1.4-0.2-2.1-0.2c-3,0-5.7,1.9-8,3.6c-3.5,2.8-6.5,6.3-9.2,9.9
			c-1.1,1.5-2.3,3.1-3.3,4.7c0.2,0.1,0.3,0.3,0.5,0.4c2.4,2.1,5,4,7.7,5.8c1.2-1.2,2.4-2.5,3.7-3.6c2.6-2.4,5.7-4.6,9.2-5.4
			c2.4-0.6,4.5-0.1,6.7,0.9c3,1.4,5.7,3.3,8.4,5.1c2-1,3.9-2,5.8-3c1.3-0.7,2.6-1.4,3.9-2.1c0.2-0.1,0.4-0.2,0.6-0.3
			c2.5-1.4,5-2.8,7.5-4.3c0.2-0.1,0.4-0.2,0.6-0.3c2.6-1.5,5.1-3.1,7.6-4.7c0.2-0.1,0.3-0.2,0.5-0.3
			C241.8,124.7,240.5,124,239.1,123.3z M239.1,123.3c-0.5-0.3-1.1-0.5-1.6-0.8c-0.2,0.1-0.4,0.2-0.7,0.3c-2.7,1.1-5.5,1.9-8.5,2.3
			c-0.3,0-0.5,0.1-0.8,0.1c-1.4,0.2-2.8,0.3-4.3,0.3h0c-2.5,0-4.9-0.3-7.2-0.7c-0.9-0.2-1.9-0.4-2.7-0.7c3.5,2.3,6.6,5,9.7,7.6
			c1.3,1.1,2.6,2.2,3.9,3.2c2.5-1.4,5-2.8,7.5-4.3c0.2-0.1,0.4-0.2,0.6-0.3c2.6-1.5,5.1-3.1,7.6-4.7c0.2-0.1,0.3-0.2,0.5-0.3
			C241.8,124.7,240.5,124,239.1,123.3z M191.5,106.9c-0.1-0.2-0.2-0.3-0.3-0.5c-2.3-4.3-3.8-9-4.3-14.1c0-0.3,0-0.5,0-0.8
			c-0.1-0.8-0.1-1.7-0.1-2.5c0-7.5,2.3-14.5,6.2-20.3c-0.5-0.1-1-0.2-1.5-0.2c-1.9,0.1-3.5,1-4.8,2.3c-3,3-4.7,7.3-6.4,11.1
			c-3.9,8.9-7.1,18.1-9.9,27.4c-1.2,3.9-2.3,7.7-3.4,11.6c0.9,1.6,1.8,3.1,2.8,4.5c0.1,0.2,0.3,0.4,0.4,0.6c1.2,1.8,2.6,3.5,4,5.2
			c0.1,0.2,0.3,0.3,0.4,0.5c1.7,2,3.6,3.9,5.6,5.6c1.1-1.6,2.2-3.2,3.3-4.7c2.7-3.6,5.7-7.1,9.2-9.9c2.2-1.8,5-3.7,8-3.6
			c0.7,0,1.4,0.1,2.1,0.2C198.2,116,194.3,111.8,191.5,106.9z M284.3,67.7c-2-5.9-4.9-11.3-8.4-16.3c-8.5-11.9-21-20.8-35.4-24.8
			c-1.4-0.4-2.8-0.7-4.2-1c-0.6-0.1-1.3-0.3-2-0.4c-3.6-0.6-7.2-1-11-1c-2.8,0-5.6,0.2-8.3,0.6c-27.6,3.5-49.8,24.6-55.1,51.7
			c-0.8,4-1.2,8.1-1.2,12.3c0,3.2,0.2,6.3,0.7,9.4c0.1,0.7,0.2,1.3,0.3,1.9c0.2,1.4,0.6,2.9,0.9,4.3c1,4.1,2.4,8,4.1,11.7
			c0.1,0.3,0.2,0.5,0.4,0.8c0.5,1.1,1.1,2.2,1.7,3.3c0.1,0.2,0.2,0.4,0.3,0.6c0.9,1.6,1.8,3.1,2.8,4.5c0.1,0.2,0.3,0.4,0.4,0.6
			c1.2,1.8,2.6,3.5,4,5.2c0.1,0.2,0.3,0.3,0.4,0.5c1.7,2,3.6,3.9,5.6,5.6c0.2,0.1,0.3,0.3,0.5,0.4c2.4,2.1,5,4,7.7,5.8
			c0.2,0.1,0.4,0.2,0.6,0.4c3,1.9,6.1,3.5,9.4,4.9c3.1-1.2,6.1-2.6,9.2-3.9c2.8-1.3,5.5-2.6,8.3-4c0.2-0.1,0.5-0.2,0.7-0.3
			c2-1,3.9-2,5.8-3c1.3-0.7,2.6-1.4,3.9-2.1c0.2-0.1,0.4-0.2,0.6-0.3c2.5-1.4,5-2.8,7.5-4.3c0.2-0.1,0.4-0.2,0.6-0.3
			c2.6-1.5,5.1-3.1,7.6-4.7c0.2-0.1,0.3-0.2,0.5-0.3c2.6-1.7,5.2-3.4,7.8-5.1c4.5-3.1,9-6.4,13.5-9.7c0.1-0.1,0.3-0.2,0.4-0.3
			c1-0.8,2-1.6,3-2.3c0.2-0.1,0.4-0.3,0.5-0.4c5.8-4.6,11.4-9.4,16.7-14.4c0.9-0.9,1.9-1.8,2.8-2.7c0-0.4,0-0.9,0-1.3
			C287.9,81.5,286.6,74.4,284.3,67.7z M259.5,93.4c-0.3,2.7-1,5.3-1.8,7.8c-0.1,0.2-0.1,0.3-0.2,0.5c-2.6,6.9-7.2,12.9-13.2,17.1
			c-0.3,0.2-0.5,0.4-0.8,0.6c-1.8,1.2-3.8,2.3-5.9,3.2c-0.2,0.1-0.4,0.2-0.7,0.3c-2.7,1.1-5.5,1.9-8.5,2.3c-0.3,0-0.5,0.1-0.8,0.1
			c-1.4,0.2-2.8,0.3-4.3,0.3h0c-2.5,0-4.9-0.3-7.2-0.7c-0.9-0.2-1.9-0.4-2.7-0.7c-0.8-0.2-1.7-0.5-2.5-0.8c-2.2-0.8-4.4-1.8-6.4-3
			c0,0,0,0,0,0c-0.5-0.3-1-0.6-1.5-1c-4.7-3.2-8.6-7.4-11.4-12.3c-0.1-0.2-0.2-0.3-0.3-0.5c-2.3-4.3-3.8-9-4.3-14.1
			c0-0.3,0-0.5,0-0.8c-0.1-0.8-0.1-1.7-0.1-2.5c0-7.5,2.3-14.5,6.2-20.3c0.1-0.1,0.2-0.3,0.3-0.5c1.1-1.6,2.3-3.1,3.7-4.5
			c0.1-0.1,0.2-0.3,0.4-0.4c6.6-6.7,15.8-10.8,25.9-10.8c15.8,0,29.3,10.2,34.4,24.3c1.4,3.8,2.1,7.9,2.1,12.2
			C259.8,90.5,259.7,92,259.5,93.4z"/>
	</g>
	<rect x="317.9" y="33.5" class="st7" width="12.8" height="123.8"/>
	<path class="st7" d="M459.3,157.2h-12.8V79.8c0-21.8-13.3-36.9-34.6-36.9c-10.8,0-19.7,3.6-26.6,10.5c-6.9,6.9-10.2,15.9-10.2,26.4
		v77.4h-12.8V33.5h12.3v16.7c8.5-12.3,22.3-19.2,39.5-19.2c28.4,0,45.4,19.5,45.4,48.2V157.2z"/>
	<path class="st7" d="M326.5,3.3c6,1.2,10.1,7.2,9,13.2s-7.2,10.1-13.2,9c-6.3-1.2-10.1-7.2-9-13.2S320.2,2.1,326.5,3.3z"/>
	<g>
		<path class="st35" d="M196.5,61.5c0.3,0.6,0.6,1.1,0.9,1.7c-0.1,0.1-0.3,0.3-0.4,0.4c-0.2-0.4-0.4-0.7-0.6-1.1
			c-1.2-2.2-2.4-4.5-3.7-6.7c-1.1-1.9-2.4-4.2-4.5-5.3c-6.3-3.5-10.1,10.2-11.2,13.8c-2.6,8.5-4.4,17.2-6.4,25.9
			c-2,8.9-3.8,17.8-5.7,26.7c-0.1-0.3-0.3-0.5-0.4-0.8c0.3-1.3,0.5-2.7,0.8-4c2.2-10.8,4.6-21.5,7.1-32.2
			c1.1-4.6,6.7-36.9,16.7-29.4C192.7,53.1,194.5,57.9,196.5,61.5z"/>
		<path class="st35" d="M277.8,122.9c0.1,0,0.3,0.1,0.4,0.1c-0.1,0.2-0.2,0.3-0.3,0.5c-0.3,0-0.5-0.1-0.8-0.2
			c-2.2-0.5-4-1.5-5.6-2.9c-0.2-0.1-0.3-0.3-0.5-0.5c-1.1-1-2-2.1-2.9-3.4c-1.2-1.7-2.2-3.5-3.3-5.3c-0.2-0.3-0.3-0.5-0.5-0.8
			c-0.5-0.8-0.9-1.6-1.5-2.3c-0.1-0.1-0.2-0.3-0.3-0.4c-1.5-2.2-3.1-4.3-5.2-6c0.1-0.2,0.1-0.3,0.2-0.5c2.2,1.8,4,3.9,5.5,6.3
			c0.1,0.1,0.2,0.3,0.3,0.4c0.3,0.5,0.6,1,0.9,1.5c0.1,0.2,0.3,0.4,0.4,0.7c1.2,2,2.4,4.2,3.8,6.1c0.9,1.2,1.8,2.4,2.9,3.4
			c0.2,0.2,0.3,0.3,0.5,0.4C273.6,121.4,275.5,122.4,277.8,122.9z"/>
		<path class="st35" d="M193.3,68.2c-0.1,0.1-0.2,0.3-0.3,0.5c-0.5-0.1-1-0.2-1.5-0.2c-1.9,0.1-3.5,1-4.8,2.3c-3,3-4.7,7.3-6.4,11.1
			c-3.9,8.9-7.1,18.1-9.9,27.4c-1.2,3.9-2.3,7.7-3.4,11.6c-0.1-0.2-0.2-0.4-0.3-0.6c1.9-6.7,3.8-13.3,6-19.9
			c2.8-8.3,5.9-16.7,9.9-24.5c1.5-2.8,3.4-6.1,6.5-7.4C190.6,67.8,192,67.8,193.3,68.2z"/>
		<path class="st35" d="M281,116.1c0.2,0.2,0.4,0.4,0.7,0.6c-0.1,0.1-0.1,0.3-0.2,0.5c-0.4-0.3-0.8-0.6-1.1-1
			c-0.2-0.2-0.4-0.4-0.6-0.6c-0.4-0.4-0.8-0.7-1.2-1.1c-1.4-1.3-2.8-2.6-4.3-3.7c-1.9-1.4-4-2.5-6.4-3c-0.2,0-0.3-0.1-0.5-0.1
			c-1.4-0.2-2.6-0.1-3.9,0.3c-0.2,0.1-0.4,0.1-0.5,0.2c-3.3,1.1-6.2,3.9-8.9,6c-2.9,2.3-6.1,5-10,5.2c-0.2,0-0.4,0-0.6,0
			c0.3-0.2,0.5-0.4,0.8-0.6c0.5,0,1-0.1,1.5-0.2c4.5-1,8.1-5,11.6-7.7c1.7-1.3,3.5-2.5,5.4-3.2c0.2-0.1,0.4-0.1,0.5-0.2
			c1.5-0.5,3.1-0.6,4.8-0.2c0.1,0,0.2,0.1,0.4,0.1c2.3,0.5,4.4,1.6,6.3,3c1.1,0.8,2.2,1.7,3.2,2.7c0.8,0.8,1.7,1.6,2.5,2.5
			C280.6,115.7,280.8,115.9,281,116.1z"/>
		<path class="st35" d="M186.9,91.5c0,0.3,0,0.5,0.1,0.8c-2,2.6-3.6,5.5-4.9,7.8c-4.8,8.2-8.4,17-11.7,25.8
			c-0.1-0.2-0.3-0.4-0.4-0.6c0.8-2.2,1.7-4.4,2.6-6.6c3.3-8.3,7.1-16.4,12.1-23.9C185.3,93.8,186,92.6,186.9,91.5z"/>
		<path class="st35" d="M280.4,115.5c0.6-0.1,1.3-0.1,1.9-0.1c-0.1,0.2-0.2,0.4-0.3,0.6c-0.3,0-0.7,0.1-1,0.1
			c-0.2,0-0.5,0.1-0.7,0.1c-2.4,0.4-4.7,1.3-7,2.9c-0.4,0.3-0.9,0.6-1.3,1c-0.1,0.1-0.3,0.2-0.4,0.3c-3.1,2.4-6,5-9.4,6.9
			c-2.7,1.6-5.5,2-8.2,1.8c-3.8-0.3-7.7-1.9-11.3-3.6c-0.9-0.4-1.8-0.9-2.7-1.3c-1-0.5-2-1-3-1.5c0.2-0.1,0.4-0.2,0.7-0.3
			c0.5,0.3,1,0.5,1.6,0.8c1.3,0.6,2.7,1.3,4,2c2.8,1.3,5.6,2.5,8.5,3.1c1,0.2,1.9,0.3,2.8,0.3c3.8,0,7.1-1.5,10.4-3.9
			c2.1-1.5,4.1-3.3,6.2-4.9c0.1-0.1,0.3-0.2,0.4-0.3c1.5-1.1,3-2.1,4.6-2.9c1.2-0.5,2.3-0.9,3.6-1.1
			C279.9,115.6,280.1,115.5,280.4,115.5z"/>
		<g>
			<g>
				<path class="st36" d="M191.2,106.4c0.1,0.2,0.2,0.3,0.3,0.5c-0.5,0.5-1,1-1.5,1.5c-3.3,3.4-6,7.2-8.5,11.1
					c-2.4,3.9-4.6,7.9-6.7,12c-0.1-0.1-0.3-0.3-0.4-0.5c2.8-5.7,5.9-11.3,9.6-16.4C186.1,111.7,188.5,108.8,191.2,106.4z"/>
				<path class="st36" d="M263.8,139.3c-0.3,0.2-0.5,0.4-0.8,0.6c-1.6,0-3.2-0.2-4.8-0.4c-4.5-0.6-9.1-1.3-13.3-3c0,0,0,0,0,0
					c-3.7-1.5-7.1-3.5-10.4-5.8c-2.4-1.7-4.7-3.5-6.9-5.5c0.3,0,0.5-0.1,0.8-0.1c2.1,1.8,4.3,3.6,6.6,5.2c3.2,2.2,6.5,4.1,10.1,5.6
					c0.1,0.1,0.2,0.1,0.3,0.1c4,1.6,8.2,2.1,12.5,2.8C259.9,139.1,261.8,139.3,263.8,139.3z"/>
			</g>
		</g>
		<g>
			<g>
				<path class="st36" d="M204.4,120.2c-1.5-0.5-3.1-0.7-4.6-0.5c-3.8,0.5-7.3,3.8-9.9,6.4c-3.5,3.5-6.4,7.4-9.1,11.6
					c-0.2-0.1-0.3-0.3-0.5-0.4c1.1-1.6,2.2-3.2,3.3-4.7c2.7-3.6,5.7-7.1,9.2-9.9c2.2-1.8,5-3.7,8-3.6c0.7,0,1.4,0.1,2.1,0.2
					C203.4,119.6,203.9,119.9,204.4,120.2z"/>
				<path class="st36" d="M248,148.7c-0.3,0.1-0.5,0.2-0.8,0.3c-3.8-1.7-7.4-3.8-10.8-6.2c-3.5-2.3-6.8-4.9-10-7.5
					c-0.8-0.6-1.6-1.3-2.3-1.9c-3.9-3.2-7.7-6.8-12.1-9.4c-0.4-0.2-0.7-0.4-1.1-0.7c0.8,0.3,1.7,0.6,2.5,0.8c3.5,2.3,6.6,5,9.7,7.6
					c1.3,1.1,2.6,2.2,3.9,3.2c3.2,2.6,6.5,5.2,9.9,7.5C240.4,144.8,244.1,147,248,148.7z"/>
			</g>
		</g>
		<path class="st35" d="M234,152.7c-0.3,0.1-0.6,0.1-0.9,0.1c-1.9-1.3-3.8-2.6-5.6-3.9c-0.5-0.3-0.9-0.7-1.4-1
			c-3.4-2.4-6.7-4.9-10.1-7.2c-0.2-0.1-0.4-0.3-0.6-0.4c-2.7-1.8-5.5-3.7-8.5-4.9c-6.8-2.6-13.5,3.8-17.8,8.4
			c-0.2-0.1-0.4-0.2-0.6-0.4c1.2-1.3,2.4-2.5,3.7-3.6c2.6-2.4,5.7-4.6,9.2-5.4c2.4-0.6,4.5-0.1,6.7,0.9c3,1.4,5.7,3.3,8.4,5.1
			c0.1,0.1,0.3,0.2,0.4,0.3c3.7,2.6,7.3,5.2,11,7.9C230,150,232,151.3,234,152.7z"/>
	</g>
	
		<linearGradient id="SVGID_00000170251950814067081700000015500152013914328483_" gradientUnits="userSpaceOnUse" x1="145.2258" y1="65.4025" x2="294.5991" y2="119.0019">
		<stop  offset="2.513967e-02" style="stop-color:#7CB2D3"/>
		<stop  offset="0.3649" style="stop-color:#5B83A8"/>
		<stop  offset="1" style="stop-color:#1F305B"/>
	</linearGradient>
	<path style="fill:url(#SVGID_00000170251950814067081700000015500152013914328483_);" d="M324.2,31.7c-0.5,5.6-2.1,11.1-4.2,16.4
		c-4.3,10.5-10.3,20.2-16.9,29.4c-4.9,6.7-10.1,13.1-15.6,19.4c-0.8,0.9-1.7,1.9-2.5,2.8c-1.3,1.4-2.5,2.7-3.8,4.1
		c-2.1,2.3-4.3,4.5-6.5,6.7c-0.1,0.1-0.3,0.3-0.4,0.4c-1.8,1.8-3.7,3.7-5.6,5.5c-0.1,0.1-0.3,0.2-0.4,0.4
		c-3.9,3.6-7.8,7.2-11.9,10.6c-0.6,0.5-1.2,1-1.8,1.5c-0.2,0.2-0.3,0.3-0.5,0.4c-2.8,2.3-5.7,4.6-8.6,6.9c-0.2,0.1-0.4,0.3-0.5,0.4
		c-2.6,2-5.3,4-8,5.9c-0.2,0.1-0.3,0.3-0.5,0.4c-2.8,2-5.5,3.9-8.4,5.8c-0.2,0.1-0.4,0.3-0.6,0.4c-2.4,1.6-4.8,3.1-7.3,4.6
		c-3,1.8-6.1,3.6-9.2,5.3c-4.1,2.2-8.3,4.3-12.5,6.3c-5.3,2.4-10.8,4.7-16.5,6.5c-4.8,1.5-9.7,2.9-14.8,3.8
		c-0.3,0.1-0.6,0.1-0.9,0.2c-0.7,0.1-1.4,0.2-2,0.3c-1.6,0.2-3.3,0.4-5,0.6c-0.2,0-0.5,0.1-0.7,0.1c-0.9,0.1-1.7,0.1-2.6,0.1
		c-0.2,0-0.4,0-0.6,0c-0.2,0-0.4,0-0.6,0c-3.2,0.1-6.6-0.1-10-0.7c-3.4-0.5-7-1.7-10.5-3.4c-3.5-1.8-6.9-4.4-9.4-7.8
		c-2.6-3.4-4.2-7.3-5-11.2c-0.8-3.8-0.9-7.6-0.5-11c0.3-3.5,1-6.8,2-9.9c0.9-3.1,2.1-6.1,3.3-8.9c2.5-5.7,5.6-10.9,8.8-15.9
		c3.3-5,6.9-9.7,10.6-14.2c4.5-5.3,9.2-10.4,14.1-15.2c0.6-0.6,1.2-1.2,1.8-1.8c-0.8,4-1.2,8.1-1.2,12.3c0,3.2,0.2,6.3,0.7,9.4
		c-1,1.3-2,2.7-3,4.1c-0.1,0.2-0.3,0.4-0.4,0.6c-3.2,4.4-6.1,8.9-8.8,13.5c-2.7,4.6-5.1,9.3-7,14c-1.8,4.7-3.2,9.5-3.5,13.7
		c-0.2,2.2-0.1,4.1,0.3,5.8c0.4,1.7,1,3,1.8,4.2c0.9,1.1,2,2.1,3.5,2.9c1.5,0.8,3.4,1.5,5.5,1.8c2,0.4,4.1,0.6,6.3,0.6
		c0.2,0,0.4,0,0.6,0c1,0,2.1,0,3.2-0.1c0.2,0,0.4,0,0.6,0c1-0.1,2-0.2,3-0.3c0.1,0,0.3,0,0.4,0c0.1,0,0.2,0,0.4,0
		c2-0.3,4.1-0.6,6.1-1c0.3-0.1,0.5-0.1,0.8-0.2c3.2-0.6,6.5-1.4,9.7-2.3c0.3-0.1,0.7-0.2,1-0.3c3.4-1,6.8-2.1,10.1-3.3
		c0.8-0.3,1.7-0.6,2.5-0.9c2-0.8,4-1.5,5.9-2.3c3.1-1.3,6.1-2.6,9.2-4c2.8-1.3,5.5-2.6,8.3-4c0.2-0.1,0.5-0.2,0.7-0.3
		c2-1,3.9-2,5.8-3c1.3-0.7,2.6-1.4,3.9-2.1c0.2-0.1,0.4-0.2,0.6-0.3c2.5-1.4,5-2.8,7.5-4.3c0.2-0.1,0.4-0.2,0.6-0.3
		c2.6-1.5,5.1-3.1,7.6-4.7c0.2-0.1,0.3-0.2,0.5-0.3c2.6-1.6,5.2-3.4,7.8-5.1c4.6-3.1,9-6.4,13.5-9.7c0.1-0.1,0.3-0.2,0.4-0.3
		c1-0.8,2-1.6,3-2.3c0.2-0.1,0.4-0.3,0.5-0.4c5.8-4.6,11.4-9.4,16.7-14.4c0.9-0.9,1.9-1.8,2.8-2.7c4.6-4.5,9-9.3,13.2-14.3
		c3.6-4.3,7-8.8,10.1-13.5c3.1-4.7,5.9-9.6,8.2-14.7c1.1-2.6,2.2-5.2,2.9-7.9c0.8-2.7,1.4-5.5,1.7-8.2c0.3-2.8,0.2-5.7-0.4-8.4
		c-0.4-2.1-1.2-4.2-2.3-6c1.1,1.8,1.9,3.9,2.4,6C324.3,26,324.5,28.8,324.2,31.7z"/>
</g>
<g>
	<g>
		<path class="st111" d="M6.6,203c0.9-1.6,2.1-2.9,3.6-3.7c1.5-0.9,3.3-1.3,5.2-1.3c2.6,0,4.7,0.6,6.3,1.9c1.7,1.3,2.7,3,3.2,5.2
			h-2.9c-0.4-1.5-1.1-2.7-2.3-3.5c-1.2-0.8-2.6-1.3-4.4-1.3c-1.4,0-2.6,0.3-3.8,1c-1.1,0.6-2,1.6-2.6,2.8c-0.6,1.3-1,2.8-1,4.6
			s0.3,3.4,1,4.6c0.6,1.3,1.5,2.2,2.6,2.9c1.1,0.6,2.4,1,3.8,1c1.7,0,3.2-0.4,4.4-1.3c1.2-0.8,1.9-2,2.3-3.6h2.9
			c-0.5,2.1-1.6,3.8-3.2,5.1c-1.7,1.3-3.8,1.9-6.3,1.9c-2,0-3.7-0.4-5.2-1.3c-1.5-0.9-2.7-2.1-3.6-3.7c-0.9-1.6-1.3-3.5-1.3-5.6
			C5.3,206.4,5.8,204.6,6.6,203z"/>
		<path class="st111" d="M33.7,218c-1.6-0.9-2.8-2.1-3.7-3.7c-0.9-1.6-1.3-3.5-1.3-5.6c0-2.2,0.5-4,1.4-5.6c0.9-1.6,2.2-2.9,3.7-3.7
			c1.6-0.9,3.3-1.3,5.3-1.3c2,0,3.7,0.4,5.3,1.3c1.6,0.9,2.8,2.1,3.7,3.7c0.9,1.6,1.4,3.5,1.4,5.6c0,2.1-0.5,4-1.4,5.6
			s-2.2,2.9-3.8,3.7c-1.6,0.9-3.4,1.3-5.3,1.3C37,219.3,35.2,218.8,33.7,218z M42.7,216c1.2-0.6,2.1-1.6,2.8-2.8
			c0.7-1.3,1.1-2.8,1.1-4.6s-0.4-3.4-1.1-4.6c-0.7-1.3-1.6-2.2-2.8-2.8c-1.2-0.6-2.4-0.9-3.8-0.9c-1.4,0-2.6,0.3-3.8,0.9
			c-1.2,0.6-2.1,1.6-2.8,2.8c-0.7,1.3-1,2.8-1,4.6s0.3,3.4,1,4.6c0.7,1.3,1.6,2.2,2.8,2.8c1.2,0.6,2.4,0.9,3.8,0.9
			C40.3,217,41.6,216.7,42.7,216z"/>
		<path class="st111" d="M55.6,217.6c-1.5-1.1-2.4-2.6-2.5-4.5h2.7c0.1,1.2,0.7,2.1,1.7,2.8c1,0.7,2.3,1.1,3.9,1.1
			c1.4,0,2.6-0.3,3.4-1c0.8-0.7,1.2-1.5,1.2-2.5c0-0.7-0.2-1.3-0.7-1.7c-0.5-0.5-1-0.8-1.7-1.1c-0.7-0.3-1.6-0.6-2.8-0.9
			c-1.5-0.4-2.8-0.8-3.8-1.2c-1-0.4-1.8-1-2.5-1.8c-0.7-0.8-1-1.9-1-3.2c0-1,0.3-2,0.9-2.8c0.6-0.9,1.5-1.5,2.6-2.1
			c1.1-0.5,2.4-0.8,3.8-0.8c2.2,0,4,0.6,5.4,1.7c1.4,1.1,2.1,2.7,2.2,4.7h-2.7c-0.1-1.2-0.6-2.2-1.4-2.9c-0.9-0.7-2.1-1.1-3.6-1.1
			c-1.3,0-2.4,0.3-3.3,1c-0.8,0.6-1.3,1.4-1.3,2.4c0,0.8,0.2,1.5,0.7,2c0.5,0.5,1.1,0.9,1.8,1.2c0.7,0.3,1.7,0.6,3,1
			c1.5,0.4,2.7,0.8,3.6,1.2c0.9,0.4,1.6,0.9,2.3,1.7c0.6,0.7,1,1.7,1,2.9c0,1.1-0.3,2.1-0.9,3c-0.6,0.9-1.5,1.6-2.5,2.1
			c-1.1,0.5-2.3,0.8-3.8,0.8C59,219.3,57.1,218.7,55.6,217.6z"/>
		<path class="st111" d="M104.3,200.1c1.5,1.5,2.3,3.8,2.3,6.7V219H104v-11.9c0-2.3-0.5-4-1.6-5.2c-1.1-1.2-2.6-1.8-4.4-1.8
			c-2,0-3.5,0.6-4.7,1.9c-1.2,1.3-1.7,3.2-1.7,5.6V219h-2.6v-11.9c0-2.3-0.5-4-1.6-5.2c-1.1-1.2-2.6-1.8-4.5-1.8
			c-2,0-3.5,0.6-4.7,1.9c-1.2,1.3-1.7,3.2-1.7,5.6V219h-2.7v-20.8h2.7v3.6c0.7-1.3,1.6-2.3,2.8-2.9c1.2-0.7,2.6-1,4.1-1
			c1.8,0,3.4,0.4,4.7,1.3c1.4,0.9,2.3,2.1,2.9,3.8c0.6-1.6,1.5-2.9,2.9-3.8c1.4-0.9,2.9-1.3,4.6-1.3
			C100.8,197.8,102.8,198.6,104.3,200.1z"/>
		<path class="st111" d="M116.3,218c-1.6-0.9-2.8-2.1-3.7-3.7c-0.9-1.6-1.3-3.5-1.3-5.6c0-2.2,0.5-4,1.4-5.6
			c0.9-1.6,2.2-2.9,3.7-3.7c1.6-0.9,3.3-1.3,5.3-1.3c2,0,3.7,0.4,5.3,1.3c1.6,0.9,2.8,2.1,3.7,3.7c0.9,1.6,1.4,3.5,1.4,5.6
			c0,2.1-0.5,4-1.4,5.6c-0.9,1.6-2.2,2.9-3.8,3.7c-1.6,0.9-3.4,1.3-5.3,1.3C119.6,219.3,117.9,218.8,116.3,218z M125.4,216
			c1.2-0.6,2.1-1.6,2.8-2.8c0.7-1.3,1.1-2.8,1.1-4.6s-0.4-3.4-1.1-4.6c-0.7-1.3-1.6-2.2-2.8-2.8c-1.2-0.6-2.4-0.9-3.8-0.9
			c-1.4,0-2.6,0.3-3.8,0.9c-1.2,0.6-2.1,1.6-2.8,2.8c-0.7,1.3-1,2.8-1,4.6s0.3,3.4,1,4.6c0.7,1.3,1.6,2.2,2.8,2.8
			c1.2,0.6,2.4,0.9,3.8,0.9C122.9,217,124.2,216.7,125.4,216z"/>
		<path class="st111" d="M138.2,217.6c-1.5-1.1-2.4-2.6-2.5-4.5h2.7c0.1,1.2,0.7,2.1,1.7,2.8c1,0.7,2.3,1.1,3.9,1.1
			c1.4,0,2.6-0.3,3.4-1c0.8-0.7,1.2-1.5,1.2-2.5c0-0.7-0.2-1.3-0.7-1.7c-0.5-0.5-1-0.8-1.7-1.1c-0.7-0.3-1.6-0.6-2.8-0.9
			c-1.5-0.4-2.8-0.8-3.8-1.2c-1-0.4-1.8-1-2.5-1.8c-0.7-0.8-1-1.9-1-3.2c0-1,0.3-2,0.9-2.8c0.6-0.9,1.5-1.5,2.6-2.1
			c1.1-0.5,2.4-0.8,3.8-0.8c2.2,0,4,0.6,5.4,1.7c1.4,1.1,2.1,2.7,2.2,4.7h-2.7c-0.1-1.2-0.6-2.2-1.4-2.9c-0.9-0.7-2.1-1.1-3.6-1.1
			c-1.3,0-2.4,0.3-3.3,1c-0.8,0.6-1.3,1.4-1.3,2.4c0,0.8,0.2,1.5,0.7,2c0.5,0.5,1.1,0.9,1.8,1.2c0.7,0.3,1.7,0.6,3,1
			c1.5,0.4,2.7,0.8,3.6,1.2c0.9,0.4,1.6,0.9,2.3,1.7c0.6,0.7,1,1.7,1,2.9c0,1.1-0.3,2.1-0.9,3c-0.6,0.9-1.5,1.6-2.5,2.1
			c-1.1,0.5-2.3,0.8-3.8,0.8C141.7,219.3,139.7,218.7,138.2,217.6z"/>
		<path class="st111" d="M159.7,200.5v12.9c0,1.3,0.2,2.1,0.7,2.6c0.5,0.5,1.3,0.7,2.5,0.7h2.4v2.3h-2.9c-1.9,0-3.3-0.4-4.2-1.3
			c-0.9-0.9-1.4-2.3-1.4-4.3v-12.9h-2.9v-2.2h2.9V193h2.7v5.2h5.7v2.2H159.7z"/>
		<path class="st111" d="M169.9,203c0.8-1.6,2-2.9,3.5-3.7c1.5-0.9,3.2-1.3,5.1-1.3c2,0,3.7,0.5,5.1,1.4c1.4,0.9,2.5,2.1,3.1,3.5
			v-4.6h2.7V219h-2.7v-4.6c-0.7,1.4-1.7,2.6-3.1,3.5c-1.4,0.9-3.1,1.4-5.1,1.4c-1.9,0-3.6-0.4-5.1-1.3c-1.5-0.9-2.7-2.1-3.5-3.8
			c-0.8-1.6-1.3-3.5-1.3-5.6C168.6,206.4,169,204.6,169.9,203z M185.7,204.2c-0.7-1.3-1.6-2.2-2.8-2.9c-1.2-0.7-2.5-1-3.9-1
			c-1.5,0-2.8,0.3-4,1c-1.2,0.7-2.1,1.6-2.8,2.9c-0.7,1.3-1,2.7-1,4.5c0,1.7,0.3,3.2,1,4.5c0.7,1.3,1.6,2.3,2.8,2.9
			c1.2,0.7,2.5,1,4,1c1.4,0,2.7-0.3,3.9-1c1.2-0.7,2.1-1.7,2.8-2.9c0.7-1.3,1-2.7,1-4.4C186.7,206.9,186.4,205.5,185.7,204.2z"/>
		<path class="st111" d="M198.9,200.5v12.9c0,1.3,0.2,2.1,0.7,2.6c0.5,0.5,1.3,0.7,2.5,0.7h2.4v2.3h-2.9c-1.9,0-3.3-0.4-4.2-1.3
			c-0.9-0.9-1.4-2.3-1.4-4.3v-12.9h-2.9v-2.2h2.9V193h2.7v5.2h5.7v2.2H198.9z"/>
		<path class="st111" d="M209,193.7c-0.4-0.4-0.6-0.8-0.6-1.4c0-0.6,0.2-1,0.6-1.4c0.4-0.4,0.8-0.6,1.4-0.6c0.5,0,1,0.2,1.4,0.6
			c0.4,0.4,0.6,0.8,0.6,1.4c0,0.6-0.2,1-0.6,1.4c-0.4,0.4-0.8,0.6-1.4,0.6C209.8,194.3,209.3,194.1,209,193.7z M211.7,198.2V219H209
			v-20.8H211.7z"/>
		<path class="st111" d="M219,217.6c-1.5-1.1-2.4-2.6-2.5-4.5h2.7c0.1,1.2,0.7,2.1,1.7,2.8c1,0.7,2.3,1.1,3.9,1.1
			c1.4,0,2.6-0.3,3.4-1c0.8-0.7,1.2-1.5,1.2-2.5c0-0.7-0.2-1.3-0.7-1.7c-0.5-0.5-1-0.8-1.7-1.1c-0.7-0.3-1.6-0.6-2.8-0.9
			c-1.5-0.4-2.8-0.8-3.8-1.2c-1-0.4-1.8-1-2.5-1.8c-0.7-0.8-1-1.9-1-3.2c0-1,0.3-2,0.9-2.8c0.6-0.9,1.5-1.5,2.6-2.1
			c1.1-0.5,2.4-0.8,3.8-0.8c2.2,0,4,0.6,5.4,1.7c1.4,1.1,2.1,2.7,2.2,4.7h-2.7c-0.1-1.2-0.6-2.2-1.4-2.9c-0.9-0.7-2.1-1.1-3.6-1.1
			c-1.3,0-2.4,0.3-3.3,1c-0.8,0.6-1.3,1.4-1.3,2.4c0,0.8,0.2,1.5,0.7,2c0.5,0.5,1.1,0.9,1.8,1.2c0.7,0.3,1.7,0.6,3,1
			c1.5,0.4,2.7,0.8,3.6,1.2c0.9,0.4,1.6,0.9,2.3,1.7c0.6,0.7,1,1.7,1,2.9c0,1.1-0.3,2.1-0.9,3c-0.6,0.9-1.5,1.6-2.5,2.1
			c-1.1,0.5-2.3,0.8-3.8,0.8C222.5,219.3,220.5,218.7,219,217.6z"/>
		<path class="st111" d="M240.6,200.5v12.9c0,1.3,0.2,2.1,0.7,2.6c0.5,0.5,1.3,0.7,2.5,0.7h2.4v2.3h-2.9c-1.9,0-3.3-0.4-4.2-1.3
			c-0.9-0.9-1.4-2.3-1.4-4.3v-12.9H235v-2.2h2.9V193h2.7v5.2h5.7v2.2H240.6z"/>
		<path class="st111" d="M250.6,193.7c-0.4-0.4-0.6-0.8-0.6-1.4c0-0.6,0.2-1,0.6-1.4c0.4-0.4,0.8-0.6,1.4-0.6c0.5,0,1,0.2,1.4,0.6
			c0.4,0.4,0.6,0.8,0.6,1.4c0,0.6-0.2,1-0.6,1.4c-0.4,0.4-0.8,0.6-1.4,0.6C251.4,194.3,251,194.1,250.6,193.7z M253.3,198.2V219
			h-2.7v-20.8H253.3z"/>
		<path class="st111" d="M259.4,203c0.9-1.6,2.1-2.9,3.6-3.7c1.5-0.9,3.3-1.3,5.2-1.3c2.6,0,4.7,0.6,6.3,1.9c1.7,1.3,2.7,3,3.2,5.2
			h-2.9c-0.4-1.5-1.1-2.7-2.3-3.5c-1.2-0.8-2.6-1.3-4.4-1.3c-1.4,0-2.6,0.3-3.8,1c-1.1,0.6-2,1.6-2.6,2.8c-0.6,1.3-1,2.8-1,4.6
			s0.3,3.4,1,4.6c0.6,1.3,1.5,2.2,2.6,2.9c1.1,0.6,2.4,1,3.8,1c1.7,0,3.2-0.4,4.4-1.3c1.2-0.8,1.9-2,2.3-3.6h2.9
			c-0.5,2.1-1.6,3.8-3.2,5.1c-1.7,1.3-3.8,1.9-6.3,1.9c-2,0-3.7-0.4-5.2-1.3c-1.5-0.9-2.7-2.1-3.6-3.7c-0.9-1.6-1.3-3.5-1.3-5.6
			C258.1,206.4,258.5,204.6,259.4,203z"/>
		<path class="st111" d="M283.9,217.6c-1.5-1.1-2.4-2.6-2.5-4.5h2.7c0.1,1.2,0.7,2.1,1.7,2.8c1,0.7,2.3,1.1,3.9,1.1
			c1.4,0,2.6-0.3,3.4-1c0.8-0.7,1.2-1.5,1.2-2.5c0-0.7-0.2-1.3-0.7-1.7c-0.5-0.5-1-0.8-1.7-1.1c-0.7-0.3-1.6-0.6-2.8-0.9
			c-1.5-0.4-2.8-0.8-3.8-1.2c-1-0.4-1.8-1-2.5-1.8c-0.7-0.8-1-1.9-1-3.2c0-1,0.3-2,0.9-2.8c0.6-0.9,1.5-1.5,2.6-2.1
			c1.1-0.5,2.4-0.8,3.8-0.8c2.2,0,4,0.6,5.4,1.7c1.4,1.1,2.1,2.7,2.2,4.7h-2.7c-0.1-1.2-0.6-2.2-1.4-2.9c-0.9-0.7-2.1-1.1-3.6-1.1
			c-1.3,0-2.4,0.3-3.3,1c-0.8,0.6-1.3,1.4-1.3,2.4c0,0.8,0.2,1.5,0.7,2c0.5,0.5,1.1,0.9,1.8,1.2c0.7,0.3,1.7,0.6,3,1
			c1.5,0.4,2.7,0.8,3.6,1.2c0.9,0.4,1.6,0.9,2.3,1.7c0.6,0.7,1,1.7,1,2.9c0,1.1-0.3,2.1-0.9,3c-0.6,0.9-1.5,1.6-2.5,2.1
			c-1.1,0.5-2.3,0.8-3.8,0.8C287.4,219.3,285.5,218.7,283.9,217.6z"/>
		<path class="st111" d="M312.4,193.7c-0.4-0.4-0.6-0.8-0.6-1.4c0-0.6,0.2-1,0.6-1.4c0.4-0.4,0.8-0.6,1.4-0.6c0.5,0,1,0.2,1.4,0.6
			c0.4,0.4,0.6,0.8,0.6,1.4c0,0.6-0.2,1-0.6,1.4c-0.4,0.4-0.8,0.6-1.4,0.6C313.2,194.3,312.8,194.1,312.4,193.7z M315.1,198.2V219
			h-2.7v-20.8H315.1z"/>
		<path class="st111" d="M337,200.1c1.6,1.5,2.4,3.8,2.4,6.7V219h-2.6v-11.9c0-2.3-0.6-4-1.7-5.2c-1.1-1.2-2.7-1.8-4.6-1.8
			c-2,0-3.6,0.6-4.8,1.9c-1.2,1.3-1.8,3.1-1.8,5.6V219h-2.7v-20.8h2.7v3.5c0.7-1.3,1.6-2.2,2.9-2.9c1.2-0.7,2.6-1,4.2-1
			C333.4,197.8,335.4,198.6,337,200.1z"/>
		<path class="st111" d="M345.2,193.7c-0.4-0.4-0.6-0.8-0.6-1.4c0-0.6,0.2-1,0.6-1.4c0.4-0.4,0.8-0.6,1.4-0.6c0.5,0,1,0.2,1.4,0.6
			c0.4,0.4,0.6,0.8,0.6,1.4c0,0.6-0.2,1-0.6,1.4c-0.4,0.4-0.8,0.6-1.4,0.6C346,194.3,345.6,194.1,345.2,193.7z M347.9,198.2V219
			h-2.7v-20.8H347.9z"/>
		<path class="st111" d="M357.4,200.5v12.9c0,1.3,0.2,2.1,0.7,2.6c0.5,0.5,1.3,0.7,2.5,0.7h2.4v2.3h-2.9c-1.9,0-3.3-0.4-4.2-1.3
			c-0.9-0.9-1.4-2.3-1.4-4.3v-12.9h-2.9v-2.2h2.9V193h2.7v5.2h5.7v2.2H357.4z"/>
		<path class="st111" d="M367.4,193.7c-0.4-0.4-0.6-0.8-0.6-1.4c0-0.6,0.2-1,0.6-1.4c0.4-0.4,0.8-0.6,1.4-0.6c0.5,0,1,0.2,1.4,0.6
			c0.4,0.4,0.6,0.8,0.6,1.4c0,0.6-0.2,1-0.6,1.4c-0.4,0.4-0.8,0.6-1.4,0.6C368.2,194.3,367.8,194.1,367.4,193.7z M370.1,198.2V219
			h-2.7v-20.8H370.1z"/>
		<path class="st111" d="M376.2,203c0.8-1.6,2-2.9,3.5-3.7c1.5-0.9,3.2-1.3,5.1-1.3c2,0,3.7,0.5,5.1,1.4c1.4,0.9,2.5,2.1,3.1,3.5
			v-4.6h2.7V219h-2.7v-4.6c-0.7,1.4-1.7,2.6-3.1,3.5c-1.4,0.9-3.1,1.4-5.1,1.4c-1.9,0-3.6-0.4-5.1-1.3c-1.5-0.9-2.7-2.1-3.5-3.8
			c-0.8-1.6-1.3-3.5-1.3-5.6C374.9,206.4,375.4,204.6,376.2,203z M392,204.2c-0.7-1.3-1.6-2.2-2.8-2.9c-1.2-0.7-2.5-1-3.9-1
			c-1.5,0-2.8,0.3-4,1c-1.2,0.7-2.1,1.6-2.8,2.9c-0.7,1.3-1,2.7-1,4.5c0,1.7,0.3,3.2,1,4.5c0.7,1.3,1.6,2.3,2.8,2.9
			c1.2,0.7,2.5,1,4,1c1.4,0,2.7-0.3,3.9-1c1.2-0.7,2.1-1.7,2.8-2.9c0.7-1.3,1-2.7,1-4.4C393.1,206.9,392.7,205.5,392,204.2z"/>
		<path class="st111" d="M405.3,200.5v12.9c0,1.3,0.2,2.1,0.7,2.6c0.5,0.5,1.3,0.7,2.5,0.7h2.4v2.3h-2.9c-1.9,0-3.3-0.4-4.2-1.3
			c-0.9-0.9-1.4-2.3-1.4-4.3v-12.9h-2.9v-2.2h2.9V193h2.7v5.2h5.7v2.2H405.3z"/>
		<path class="st111" d="M415.3,193.7c-0.4-0.4-0.6-0.8-0.6-1.4c0-0.6,0.2-1,0.6-1.4c0.4-0.4,0.8-0.6,1.4-0.6c0.5,0,1,0.2,1.4,0.6
			c0.4,0.4,0.6,0.8,0.6,1.4c0,0.6-0.2,1-0.6,1.4c-0.4,0.4-0.8,0.6-1.4,0.6C416.1,194.3,415.7,194.1,415.3,193.7z M418,198.2V219
			h-2.7v-20.8H418z"/>
		<path class="st111" d="M431.4,216.4l7-18.2h2.8l-8.3,20.8h-3l-8.3-20.8h2.9L431.4,216.4z"/>
		<path class="st111" d="M463.5,209.6h-17.2c0.1,1.6,0.5,2.9,1.1,4c0.7,1.1,1.6,2,2.7,2.5c1.1,0.6,2.3,0.9,3.6,0.9
			c1.7,0,3.2-0.4,4.4-1.3c1.2-0.8,2-2,2.3-3.4h2.8c-0.5,2-1.6,3.7-3.3,5c-1.7,1.3-3.7,1.9-6.3,1.9c-2,0-3.7-0.4-5.2-1.3
			c-1.5-0.9-2.8-2.1-3.6-3.7c-0.9-1.6-1.3-3.5-1.3-5.6c0-2.2,0.4-4,1.3-5.7c0.9-1.6,2.1-2.9,3.6-3.7c1.5-0.9,3.3-1.3,5.3-1.3
			c2,0,3.7,0.4,5.2,1.3c1.5,0.9,2.6,2,3.4,3.5c0.8,1.5,1.2,3.1,1.2,4.8C463.6,208.4,463.6,209.1,463.5,209.6z M460,203.5
			c-0.6-1.1-1.5-1.9-2.6-2.5c-1.1-0.6-2.3-0.8-3.6-0.8c-2,0-3.7,0.6-5.1,1.9c-1.4,1.3-2.2,3.1-2.3,5.4h14.6
			C460.9,205.9,460.6,204.6,460,203.5z"/>
	</g>
</g>
</svg>
